<?xml version="1.0" encoding="utf-8"?>
<!-- Generator: Adobe Illustrator 19.0.0, SVG Export Plug-In . SVG Version: 6.00 Build 0)  -->
<svg version="1.1" id="ART" xmlns="http://www.w3.org/2000/svg" xmlns:xlink="http://www.w3.org/1999/xlink" x="0px" y="0px"
	 viewBox="0 0 226.5 70.4" style="enable-background:new 0 0 226.5 70.4;" xml:space="preserve">
<style type="text/css">
	.st0{fill:#972F35;}
	.st1{font-family:'Helvetica';}
	.st2{font-size:10.3605px;}
	.st3{fill:#DAD9D9;}
</style>
<g>
	<path class="st0" d="M163.5,51.3c-2.7,0-5.1,0-7.6,0c-0.3,0-0.7-0.5-0.9-0.8c-2.3-5-4.6-10.1-6.9-15.1c-0.9-1.9-1.7-3.9-2.8-5.6
		c-1.1-1.7-3-1.4-3.9,0.5c-1.5,3.2-2.9,6.4-4.3,9.6c-1.6,3.6-3.2,7.1-4.9,10.7c-0.2,0.4-0.7,0.7-1.1,0.7c-4.4,0-8.7,0-13.1,0
		c-0.5,0-1.2-0.3-1.5-0.7c-4-4.8-8-9.7-12-14.6c-0.2-0.2-0.3-0.5-0.5-0.9c0.6,0,1-0.1,1.5-0.1c2.2,0,4.4,0.1,6.6-0.1
		c0.9-0.1,2.2-0.4,2.5-1c0.5-1,0.6-2.3,0.5-3.5c-0.1-1-1.1-1.6-2.1-1.7c-3.3-0.1-6.6,0-10.1,0c0,1.8,0,3.5,0,5.2
		c0,5.4,0,10.8,0,16.2c0,0.8-0.2,1.1-1.1,1.1c-7.1,0-14.2,0.1-21.4-0.1c-4.3-0.1-8.2-1.7-10.8-5.5c-1.5-2.3-2.3-4.8-2.3-7.5
		c0-2.5,0.1-5.2,0.7-7.6c0.6-2.4,2.2-4.6,4.2-6.1c2.2-1.6,4.6-2.4,7.3-2.5c3.5-0.1,6.9-0.2,10.4-0.1c0.3,0,0.9,0.6,0.9,0.9
		c0.1,1.8,0,3.6,0,5.5c-0.7,0.1-1.3,0.2-1.9,0.2c-2.8,0.1-5.6,0.1-8.4,0.3c-3,0.2-5.2,2.5-5.5,5.6c-0.2,2.2-0.2,4.4,0.7,6.6
		c0.7,1.8,2.1,2.6,3.6,3.1c1.3,0.4,2.6,0.5,4,0.5c3.7,0.1,7.4,0,11.2,0c0.4,0,0.7,0,1.1,0c0-4.9,0-9.6,0-14.3c0-2.4,0-4.7,0-7.1
		c0-1,0.4-1.3,1.4-1.3c6.1,0.1,12.2,0,18.2,0.2c2.6,0.1,5,1.2,6.4,3.5c0.7,1.3,1.1,3,1.2,4.6c0.1,2.3-0.2,4.6-1.7,6.5
		c-1.1,1.4-2.7,2-4.3,2.6c-0.8,0.3-0.8,0.5-0.3,1.1c2.4,2.6,4.7,5.2,7.1,7.8c0.5,0.6,0.9,0.6,1.2-0.2c1.8-3.8,3.5-7.7,5.3-11.5
		c1.4-3,2.8-6,4.2-9.1c0.9-2,1.9-4,4-5c2.9-1.4,5.9-1.6,8.9-0.5c3.3,1.2,4.6,4,5.9,6.9c2.8,6.1,5.6,12.2,8.5,18.3
		c0.4,0.9,0.8,1.8,1.2,2.7C163.3,50.1,163.4,50.6,163.5,51.3z"/>
	<path class="st0" d="M172.7,51.2c-2.4,0-4.7,0-7.2,0c-0.1-0.5-0.2-0.9-0.2-1.4c0-7.6,0-15.2,0-22.8c0-2.2,0.8-3.8,2.8-4.8
		c2.9-1.4,7.6-0.1,9.4,2.7c3.2,5.1,6.4,10.1,9.5,15.2c0.2,0.3,0.4,0.6,0.8,1.1c0.1-0.6,0.1-0.9,0.1-1.2c0-5.7,0-11.4,0-17
		c0-0.9,0.2-1.3,1.2-1.3c1.8,0,3.5,0,5.3,0c0.3,0,0.7,0.4,0.9,0.7c0.1,0.1,0.1,0.4,0.1,0.6c0,7.8,0,15.7-0.1,23.5
		c0,1.3-0.4,2.6-1,3.7c-0.5,1.1-1.7,1.5-3,1.6c-4.2,0.5-6.6-2.1-8.5-5.2c-3-4.7-6-9.6-8.9-14.3c-0.2-0.3-0.5-0.5-0.8-0.7
		c-0.1,0.4-0.4,0.7-0.4,1.1c0,3.4,0,6.8,0,10.2C172.7,45.6,172.7,48.3,172.7,51.2z"/>
	<path class="st0" d="M226.4,28.3c-1.2,0-2.4,0-3.5,0c-3.6,0.1-7.1,0.1-10.7,0.4c-2.3,0.2-4,1.4-4.8,3.7c-0.9,2.8-0.9,5.7,0.1,8.6
		c0.7,2,2.3,2.9,4.2,3c4.6,0.3,9.2,0.3,13.8,0.3c0.7,0,0.9,0.2,0.9,0.9c0,1.7,0,3.4,0,5c0,0.7-0.3,0.9-1,0.9c-4.5,0-9,0.1-13.4,0
		c-4.4-0.1-8.3-1.5-10.7-5.3c-1-1.6-1.8-3.4-2.1-5.2c-0.6-3.3-0.7-6.7,0.4-9.9c1.1-3.5,3.2-6.1,6.6-7.7c2.2-1,4.5-1.3,6.8-1.3
		c4.1,0,8.2,0,12.2,0c0.9,0,1.2,0.5,1.2,1.2C226.5,24.6,226.4,26.3,226.4,28.3z"/>
	<path class="st0" d="M225.5,39.8c-1.4,0-2.7,0-4,0c-2.8,0-5.7,0-8.5,0c-1.4,0-2.4-0.5-2.9-1.7c-0.6-1.5-0.4-2.9,0.7-4.2
		c0.6-0.6,1.2-0.9,2.1-0.9c3.9,0,7.8-0.1,11.8,0c0.3,0,0.8,0.5,0.8,0.7C225.5,35.7,225.5,37.6,225.5,39.8z"/>
	<path class="st0" d="M150.3,45.5c-4.4,0-8.7,0-13.2,0c0.9-2.1,1.7-4,2.5-5.9c0.1-0.2,0.5-0.3,0.8-0.3c2.3,0,4.6,0,6.8,0
		c0.3,0,0.8,0.2,0.9,0.4c0.8,1.7,1.4,3.4,2.1,5.2C150.2,45,150.2,45.2,150.3,45.5z"/>
</g>
<text transform="matrix(1 0 0 1 168.535 64.6431)" class="st0 st1 st2">SINCE 1885</text>
<g>
	<circle class="st3" cx="55.9" cy="4" r="4"/>
	<circle class="st3" cx="55.9" cy="14.4" r="4"/>
	<circle class="st3" cx="55.9" cy="24.8" r="4"/>
	<circle class="st3" cx="55.9" cy="45.6" r="4"/>
	<circle class="st3" cx="55.9" cy="56.1" r="4"/>
	<circle class="st3" cx="55.9" cy="66.5" r="4"/>
</g>
<g>
	<circle class="st3" cx="45.5" cy="4" r="4"/>
	<circle class="st3" cx="45.5" cy="14.4" r="4"/>
	<circle class="st3" cx="45.5" cy="24.8" r="4"/>
	<circle class="st3" cx="45.5" cy="45.6" r="4"/>
	<circle class="st3" cx="45.5" cy="56.1" r="4"/>
	<circle class="st3" cx="45.5" cy="66.5" r="4"/>
</g>
<g>
	<circle class="st3" cx="35.1" cy="4" r="4"/>
	<circle class="st3" cx="35.1" cy="14.4" r="4"/>
	<circle class="st3" cx="35.1" cy="24.8" r="4"/>
	<circle class="st3" cx="35.1" cy="45.6" r="4"/>
	<circle class="st3" cx="35.1" cy="56.1" r="4"/>
	<circle class="st3" cx="35.1" cy="66.5" r="4"/>
</g>
<g>
	<circle class="st3" cx="24.7" cy="4" r="4"/>
	<circle class="st3" cx="24.7" cy="14.4" r="4"/>
	<circle class="st3" cx="24.7" cy="24.8" r="4"/>
	<circle class="st3" cx="24.7" cy="35.2" r="4"/>
	<circle class="st3" cx="24.7" cy="45.6" r="4"/>
	<circle class="st3" cx="24.7" cy="56.1" r="4"/>
	<circle class="st3" cx="24.7" cy="66.5" r="4"/>
</g>
<g>
	<circle class="st3" cx="14.4" cy="14.4" r="4"/>
	<circle class="st3" cx="14.4" cy="24.8" r="4"/>
	<circle class="st3" cx="14.4" cy="35.2" r="4"/>
	<circle class="st3" cx="14.4" cy="45.6" r="4"/>
	<circle class="st3" cx="14.4" cy="56.1" r="4"/>
</g>
<g>
	<circle class="st3" cx="4" cy="24.8" r="4"/>
	<circle class="st3" cx="4" cy="35.2" r="4"/>
	<circle class="st3" cx="4" cy="45.6" r="4"/>
</g>
</svg>
